<svg width="763" height="331" viewBox="0 0 763 331" fill="none" xmlns="http://www.w3.org/2000/svg">
<g filter="url(#filter0_d_564_443)">
<path d="M166.901 283C164.356 283 162.159 282.075 160.308 280.224C158.458 278.374 157.533 276.176 157.533 273.632V231.648H49.9717C47.4273 231.648 45.2298 230.723 43.3793 228.873C41.5288 227.022 40.6035 224.825 40.6035 222.28V197.645C40.6035 194.407 41.2975 191.631 42.6853 189.318C44.3045 186.773 46.155 184.113 48.2369 181.338L154.41 48.7949C159.036 43.012 163.778 40.1206 168.636 40.1206H195.005C197.55 40.1206 199.747 41.0458 201.598 42.8964C203.448 44.7469 204.374 46.9443 204.374 49.4888V188.277H234.213C236.758 188.277 238.955 189.202 240.806 191.053C242.656 192.903 243.581 195.101 243.581 197.645V222.28C243.581 224.825 242.656 227.022 240.806 228.873C238.955 230.723 236.758 231.648 234.213 231.648H204.374V273.632C204.374 276.176 203.448 278.374 201.598 280.224C199.747 282.075 197.55 283 195.005 283H166.901ZM157.533 188.277V114.025L98.2006 188.277H157.533Z" fill="url(#paint0_linear_564_443)"/>
<path d="M475.507 130.68C475.738 135.075 475.854 139.932 475.854 145.253C475.854 150.573 475.854 156.009 475.854 161.56C475.854 167.112 475.854 172.548 475.854 177.868C475.854 183.188 475.738 188.046 475.507 192.441C474.813 205.857 472.731 218.348 469.261 229.913C466.023 241.248 460.703 251.194 453.301 259.753C446.13 268.08 436.646 274.673 424.849 279.53C413.283 284.157 399.058 286.47 382.172 286.47C365.054 286.47 350.713 284.157 339.147 279.53C327.582 274.673 318.098 268.08 310.696 259.753C303.525 251.194 298.205 241.248 294.735 229.913C291.497 218.348 289.53 205.857 288.837 192.441C288.374 183.651 288.143 173.704 288.143 162.601C288.143 151.267 288.374 141.205 288.837 132.415C289.53 118.999 291.497 106.508 294.735 94.9419C298.205 83.1449 303.525 72.9671 310.696 64.4085C318.098 55.8499 327.582 49.1418 339.147 44.2842C350.713 39.1953 365.054 36.6509 382.172 36.6509C399.058 36.6509 413.283 39.0797 424.849 43.9373C436.646 48.5635 446.13 55.156 453.301 63.7146C460.703 72.0419 466.023 81.9884 469.261 93.5541C472.731 104.888 474.813 117.264 475.507 130.68ZM335.678 190.706C336.834 207.36 340.766 220.314 347.475 229.567C354.414 238.588 365.98 243.098 382.172 243.098C398.364 243.098 409.814 238.588 416.522 229.567C423.461 220.314 427.509 207.36 428.666 190.706C429.128 181.916 429.36 172.201 429.36 161.56C429.36 150.92 429.128 141.205 428.666 132.415C427.509 115.76 423.461 102.922 416.522 93.901C409.814 84.6485 398.364 80.0222 382.172 80.0222C365.98 80.0222 354.414 84.6485 347.475 93.901C340.766 102.922 336.834 115.76 335.678 132.415C335.215 141.205 334.984 150.92 334.984 161.56C334.984 172.201 335.215 181.916 335.678 190.706Z" fill="url(#paint1_linear_564_443)"/>
<path d="M646.018 283C643.474 283 641.276 282.075 639.426 280.224C637.575 278.374 636.65 276.176 636.65 273.632V231.648H529.089C526.545 231.648 524.347 230.723 522.497 228.873C520.646 227.022 519.721 224.825 519.721 222.28V197.645C519.721 194.407 520.415 191.631 521.803 189.318C523.422 186.773 525.273 184.113 527.354 181.338L633.527 48.7949C638.154 43.012 642.896 40.1206 647.753 40.1206H674.123C676.667 40.1206 678.865 41.0458 680.715 42.8964C682.566 44.7469 683.491 46.9443 683.491 49.4888V188.277H713.331C715.875 188.277 718.073 189.202 719.923 191.053C721.774 192.903 722.699 195.101 722.699 197.645V222.28C722.699 224.825 721.774 227.022 719.923 228.873C718.073 230.723 715.875 231.648 713.331 231.648H683.491V273.632C683.491 276.176 682.566 278.374 680.715 280.224C678.865 282.075 676.667 283 674.123 283H646.018ZM636.65 188.277V114.025L577.318 188.277H636.65Z" fill="url(#paint2_linear_564_443)"/>
</g>
<defs>
<filter id="filter0_d_564_443" x="0.603516" y="0.650879" width="762.095" height="329.819" filterUnits="userSpaceOnUse" color-interpolation-filters="sRGB">
<feFlood flood-opacity="0" result="BackgroundImageFix"/>
<feColorMatrix in="SourceAlpha" type="matrix" values="0 0 0 0 0 0 0 0 0 0 0 0 0 0 0 0 0 0 127 0" result="hardAlpha"/>
<feOffset dy="4"/>
<feGaussianBlur stdDeviation="20"/>
<feComposite in2="hardAlpha" operator="out"/>
<feColorMatrix type="matrix" values="0 0 0 0 0.299271 0 0 0 0 0.36465 0 0 0 0 0.425 0 0 0 0.1 0"/>
<feBlend mode="normal" in2="BackgroundImageFix" result="effect1_dropShadow_564_443"/>
<feBlend mode="normal" in="SourceGraphic" in2="effect1_dropShadow_564_443" result="shape"/>
</filter>
<linearGradient id="paint0_linear_564_443" x1="91" y1="-15.5" x2="453.269" y2="645.004" gradientUnits="userSpaceOnUse">
<stop stop-color="#B9E2F7"/>
<stop offset="0.229114" stop-color="#BDACFA"/>
<stop offset="0.459842" stop-color="#B546FE"/>
<stop offset="0.668804" stop-color="#BBB4F9"/>
<stop offset="0.87548" stop-color="#BBB5F9"/>
<stop offset="1" stop-color="#B9E3F7"/>
</linearGradient>
<linearGradient id="paint1_linear_564_443" x1="91" y1="-15.5" x2="453.269" y2="645.004" gradientUnits="userSpaceOnUse">
<stop stop-color="#B9E2F7"/>
<stop offset="0.229114" stop-color="#BDACFA"/>
<stop offset="0.459842" stop-color="#B546FE"/>
<stop offset="0.668804" stop-color="#BBB4F9"/>
<stop offset="0.87548" stop-color="#BBB5F9"/>
<stop offset="1" stop-color="#B9E3F7"/>
</linearGradient>
<linearGradient id="paint2_linear_564_443" x1="91" y1="-15.5" x2="453.269" y2="645.004" gradientUnits="userSpaceOnUse">
<stop stop-color="#B9E2F7"/>
<stop offset="0.229114" stop-color="#BDACFA"/>
<stop offset="0.459842" stop-color="#B546FE"/>
<stop offset="0.668804" stop-color="#BBB4F9"/>
<stop offset="0.87548" stop-color="#BBB5F9"/>
<stop offset="1" stop-color="#B9E3F7"/>
</linearGradient>
</defs>
</svg>
