<svg width="127" height="101" viewBox="0 0 127 101" fill="none" xmlns="http://www.w3.org/2000/svg">
<path d="M0.390137 0.725891V29.439C0.390137 37.7895 1.99601 46.397 5.20777 55.2615C8.41952 64.1259 12.659 72.4765 17.9263 80.3131C23.1936 88.2783 28.9747 95.023 35.2698 100.547L61.0923 85.5162C56.4674 77.808 52.4848 69.5217 49.1446 60.6572C45.8043 51.7928 44.1342 41.3867 44.1342 29.439V0.725891H0.390137ZM65.9099 0.725891V29.439C65.9099 37.7895 67.5158 46.397 70.7275 55.2615C73.9393 64.1259 78.1788 72.4765 83.4461 80.3131C88.7134 88.2783 94.4945 95.023 100.79 100.547L126.612 85.5162C121.987 77.808 118.005 69.5217 114.664 60.6572C111.324 51.7928 109.654 41.3867 109.654 29.439V0.725891H65.9099Z" fill="black" fill-opacity="0.03"/>
</svg>
