<svg width="24" height="24" viewBox="0 0 24 24" fill="none" xmlns="http://www.w3.org/2000/svg">
<path d="M12.1504 8.7002C10.2404 8.7002 8.69043 10.2502 8.69043 12.1602C8.69043 14.0702 10.2404 15.6202 12.1504 15.6202C14.0604 15.6202 15.6104 14.0702 15.6104 12.1602C15.6104 10.2502 14.0604 8.7002 12.1504 8.7002Z" fill="#4896D2"/>
<path d="M16.53 2H7.78C4.59 2 2 4.59 2 7.78V16.53C2 19.72 4.59 22.31 7.78 22.31H16.53C19.72 22.31 22.31 19.72 22.31 16.53V7.78C22.31 4.59 19.72 2 16.53 2ZM12.15 17.36C9.28001 17.36 6.95 15.03 6.95 12.16C6.95 9.29 9.28001 6.96 12.15 6.96C15.02 6.96 17.35 9.29 17.35 12.16C17.36 15.03 15.02 17.36 12.15 17.36ZM17.58 7.91C16.89 7.91 16.33 7.35 16.33 6.66C16.33 5.97 16.89 5.41 17.58 5.41C18.27 5.41 18.83 5.97 18.83 6.66C18.83 7.35 18.27 7.91 17.58 7.91Z" fill="#4896D2"/>
<path d="M12.1504 15.6202C10.2404 15.6202 8.69043 14.0702 8.69043 12.1602C8.69043 10.2502 10.2404 8.7002 12.1504 8.7002C14.0604 8.7002 15.6104 10.2502 15.6104 12.1602C15.6104 14.0702 14.0604 15.6202 12.1504 15.6202Z" fill="#4896D2"/>
</svg>
