<svg width="24" height="24" viewBox="0 0 24 24" fill="none" xmlns="http://www.w3.org/2000/svg">
<path d="M11.7453 18.946H13.1772C13.1772 18.946 13.6068 18.8937 13.8318 18.6531C14.0363 18.4335 14.0261 18.0046 14.0261 18.0046C14.0261 18.0046 13.9954 16.038 14.8955 15.7452C15.7751 15.4627 16.9103 17.6489 18.107 18.4858C19.0172 19.1238 19.7025 18.9879 19.7025 18.9879L22.9038 18.946C22.9038 18.946 24.5811 18.8414 23.7834 17.492C23.722 17.377 23.3231 16.4983 21.4003 14.6677C19.3854 12.764 19.6616 13.0673 22.0856 9.77231C23.5584 7.76393 24.1516 6.54007 23.9675 6.00659C23.7936 5.50449 22.7095 5.64048 22.7095 5.64048L19.0991 5.6614C19.0991 5.6614 18.8331 5.61956 18.6286 5.74508C18.4343 5.86015 18.3115 6.14257 18.3115 6.14257C18.3115 6.14257 17.7388 7.70116 16.9819 9.01916C15.3762 11.8121 14.7318 11.9585 14.4659 11.7807C13.8522 11.3727 14.0057 10.1593 14.0057 9.29113C14.0057 6.58191 14.4045 5.46265 13.2283 5.16976C12.8397 5.07562 12.5431 5.01286 11.5408 5.0024C10.2521 4.99194 9.16793 5.0024 8.54404 5.31621C8.13493 5.52542 7.81787 5.97521 8.0122 6.00659C8.24744 6.03797 8.78951 6.15303 9.07588 6.55053C9.44408 7.06308 9.43386 8.22418 9.43386 8.22418C9.43386 8.22418 9.64864 11.4041 8.9327 11.8016C8.44177 12.0736 7.77696 11.5192 6.34508 8.98778C5.60868 7.6907 5.05639 6.25764 5.05639 6.25764C5.05639 6.25764 4.95411 5.98567 4.75978 5.84968C4.52454 5.67186 4.20748 5.61956 4.20748 5.61956L0.781193 5.64048C0.781193 5.64048 0.269807 5.65094 0.0754803 5.88107C-0.0881634 6.07981 0.0652524 6.50869 0.0652524 6.50869C0.0652524 6.50869 2.74492 12.9313 5.79278 16.174C8.57473 19.1448 11.7453 18.946 11.7453 18.946Z" fill="#4896D2"/>
</svg>
