<svg width="120" height="120" viewBox="0 0 120 120" fill="none" xmlns="http://www.w3.org/2000/svg">
<path d="M60.0599 74.1505C52.0375 74.1505 45.5481 67.9005 45.5481 60.0505C45.5481 52.2005 52.0375 45.9005 60.0599 45.9005C68.0822 45.9005 74.4184 52.2005 74.4184 60.0505C74.4184 67.9005 68.0822 74.1505 60.0599 74.1505Z" fill="black"/>
<path opacity="0.4" d="M106.15 71.8505C105.179 70.3505 103.8 68.8505 102.011 67.9005C100.58 67.2005 99.6607 66.0505 98.8431 64.7005C96.2372 60.4005 97.7701 54.7505 102.113 52.2005C107.223 49.3505 108.858 43.0005 105.895 38.0505L102.471 32.1505C99.5585 27.2005 93.1713 25.4505 88.1126 28.3505C83.616 30.7505 77.8419 29.1505 75.2359 24.9005C74.4184 23.5005 73.9585 22.0005 74.0607 20.5005C74.214 18.5505 73.6008 16.7005 72.681 15.2005C70.7904 12.1005 67.3669 10.0005 63.5856 10.0005H56.3808C52.6507 10.1005 49.2271 12.1005 47.3365 15.2005C46.3656 16.7005 45.8036 18.5505 45.9058 20.5005C46.0079 22.0005 45.5481 23.5005 44.7305 24.9005C42.1245 29.1505 36.3505 30.7505 31.9049 28.3505C26.7951 25.4505 20.459 27.2005 17.4953 32.1505L14.0718 38.0505C11.1592 43.0005 12.7943 49.3505 17.853 52.2005C22.1963 54.7505 23.7293 60.4005 21.1744 64.7005C20.3057 66.0505 19.386 67.2005 17.9552 67.9005C16.2179 68.8505 14.685 70.3505 13.8674 71.8505C11.9768 74.9505 12.079 78.8505 13.9696 82.1005L17.4953 88.1005C19.386 91.3005 22.9117 93.3005 26.5908 93.3005C28.3281 93.3005 30.372 92.8005 32.0071 91.8005C33.2846 90.9505 34.8175 90.6505 36.5037 90.6505C41.5624 90.6505 45.8036 94.8005 45.9058 99.7505C45.9058 105.501 50.6068 110 56.5341 110H63.4834C69.3597 110 74.0607 105.501 74.0607 99.7505C74.214 94.8005 78.4551 90.6505 83.5138 90.6505C85.1489 90.6505 86.6819 90.9505 88.0104 91.8005C89.6455 92.8005 91.6383 93.3005 93.4268 93.3005C97.0547 93.3005 100.58 91.3005 102.471 88.1005L106.048 82.1005C107.887 78.7505 108.041 74.9505 106.15 71.8505Z" fill="black"/>
</svg>
